<svg preserveAspectRatio="none" width="100%" height="100%" overflow="visible" style="display: block;" viewBox="0 0 17 17" fill="none" xmlns="http://www.w3.org/2000/svg">
<g id="Icon">
<path id="Vector" d="M8.65583 1.41667H8.34417C7.96844 1.41667 7.60811 1.56592 7.34243 1.8316C7.07676 2.09728 6.9275 2.45761 6.9275 2.83333V2.96083C6.92725 3.20926 6.86167 3.45326 6.73734 3.66834C6.61301 3.88343 6.43431 4.06203 6.21917 4.18625L5.91458 4.36333C5.69922 4.48767 5.45493 4.55313 5.20625 4.55313C4.95757 4.55313 4.71328 4.48767 4.49792 4.36333L4.39167 4.30667C4.06659 4.11914 3.68038 4.06827 3.31783 4.16522C2.95528 4.26216 2.64602 4.499 2.45792 4.82375L2.30208 5.09292C2.11456 5.418 2.06369 5.8042 2.16063 6.16675C2.25758 6.5293 2.49442 6.83857 2.81917 7.02667L2.92542 7.0975C3.13953 7.22111 3.31756 7.3986 3.44183 7.61234C3.56609 7.82607 3.63226 8.06861 3.63375 8.31583V8.67708C3.63474 8.92671 3.56975 9.17217 3.44536 9.38861C3.32098 9.60504 3.14161 9.78477 2.92542 9.90958L2.81917 9.97333C2.49442 10.1614 2.25758 10.4707 2.16063 10.8333C2.06369 11.1958 2.11456 11.582 2.30208 11.9071L2.45792 12.1763C2.64602 12.501 2.95528 12.7378 3.31783 12.8348C3.68038 12.9317 4.06659 12.8809 4.39167 12.6933L4.49792 12.6367C4.71328 12.5123 4.95757 12.4469 5.20625 12.4469C5.45493 12.4469 5.69922 12.5123 5.91458 12.6367L6.21917 12.8137C6.43431 12.938 6.61301 13.1166 6.73734 13.3317C6.86167 13.5467 6.92725 13.7907 6.9275 14.0392V14.1667C6.9275 14.5424 7.07676 14.9027 7.34243 15.1684C7.60811 15.4341 7.96844 15.5833 8.34417 15.5833H8.65583C9.03156 15.5833 9.39189 15.4341 9.65757 15.1684C9.92324 14.9027 10.0725 14.5424 10.0725 14.1667V14.0392C10.0728 13.7907 10.1383 13.5467 10.2627 13.3317C10.387 13.1166 10.5657 12.938 10.7808 12.8137L11.0854 12.6367C11.3008 12.5123 11.5451 12.4469 11.7937 12.4469C12.0424 12.4469 12.2867 12.5123 12.5021 12.6367L12.6083 12.6933C12.9334 12.8809 13.3196 12.9317 13.6822 12.8348C14.0447 12.7378 14.354 12.501 14.5421 12.1763L14.6979 11.9C14.8854 11.5749 14.9363 11.1887 14.8394 10.8262C14.7424 10.4636 14.5056 10.1543 14.1808 9.96625L14.0746 9.90958C13.8584 9.78477 13.679 9.60504 13.5546 9.38861C13.4302 9.17217 13.3653 8.92671 13.3663 8.67708V8.32292C13.3653 8.07329 13.4302 7.82783 13.5546 7.61139C13.679 7.39496 13.8584 7.21523 14.0746 7.09042L14.1808 7.02667C14.5056 6.83857 14.7424 6.5293 14.8394 6.16675C14.9363 5.8042 14.8854 5.418 14.6979 5.09292L14.5421 4.82375C14.354 4.499 14.0447 4.26216 13.6822 4.16522C13.3196 4.06827 12.9334 4.11914 12.6083 4.30667L12.5021 4.36333C12.2867 4.48767 12.0424 4.55313 11.7937 4.55313C11.5451 4.55313 11.3008 4.48767 11.0854 4.36333L10.7808 4.18625C10.5657 4.06203 10.387 3.88343 10.2627 3.66834C10.1383 3.45326 10.0728 3.20926 10.0725 2.96083V2.83333C10.0725 2.45761 9.92324 2.09728 9.65757 1.8316C9.39189 1.56592 9.03156 1.41667 8.65583 1.41667Z" stroke="var(--stroke-0, #9B7478)" stroke-width="1.275" stroke-linecap="round" stroke-linejoin="round"/>
<path id="Vector_2" d="M8.5 10.625C9.6736 10.625 10.625 9.6736 10.625 8.5C10.625 7.32639 9.6736 6.375 8.5 6.375C7.32639 6.375 6.375 7.32639 6.375 8.5C6.375 9.6736 7.32639 10.625 8.5 10.625Z" stroke="var(--stroke-0, #9B7478)" stroke-width="1.275" stroke-linecap="round" stroke-linejoin="round"/>
</g>
</svg>
