<svg preserveAspectRatio="xMidYMid meet" width="100%" height="100%" overflow="visible" style="display: block;" viewBox="0 0 213.4 194" fill="none" xmlns="http://www.w3.org/2000/svg">
<g id="IllustPhoto">
<path id="Vector" d="M106.7 158.11C148.486 158.11 182.36 132.922 182.36 101.85C182.36 70.7785 148.486 45.59 106.7 45.59C64.9142 45.59 31.04 70.7785 31.04 101.85C31.04 132.922 64.9142 158.11 106.7 158.11Z" fill="var(--fill-0, #D4144F)" fill-opacity="0.06"/>
<g id="Group">
<path id="Vector_2" d="M90.287 43.0953L32.6534 51.1952C25.2263 52.239 20.0517 59.106 21.0955 66.533L31.8953 143.378C32.9391 150.805 39.8061 155.979 47.2331 154.936L104.867 146.836C112.294 145.792 117.468 138.925 116.425 131.498L105.625 54.6532C104.581 47.2262 97.714 42.0515 90.287 43.0953Z" fill="var(--fill-0, white)" stroke="var(--stroke-0, #FFB6A3)" stroke-opacity="0.3" stroke-width="1.164"/>
<path id="Vector_3" d="M89.7159 52.9709L35.9245 60.5308C31.6805 61.1273 28.7236 65.0512 29.32 69.2953L36.3399 119.244C36.9364 123.488 40.8604 126.445 45.1044 125.849L98.8957 118.289C103.14 117.693 106.097 113.769 105.5 109.525L98.4803 59.5754C97.8839 55.3314 93.9599 52.3745 89.7159 52.9709Z" fill="var(--fill-0, #F9E0E7)"/>
<path id="Vector_4" d="M70.38 110.542C80.9901 109.051 88.7451 101.821 87.7013 94.3944C86.6575 86.9674 77.2101 82.1554 66.6001 83.6465C55.99 85.1377 48.2351 92.3673 49.2789 99.7943C50.3227 107.221 59.77 112.033 70.38 110.542Z" fill="var(--fill-0, #FFB6A3)" fill-opacity="0.3"/>
<path id="Vector_5" d="M82.3585 91.2272C86.6025 90.6307 89.5594 86.7067 88.963 82.4627C88.3665 78.2187 84.4425 75.2617 80.1985 75.8582C75.9545 76.4547 72.9976 80.3786 73.594 84.6227C74.1905 88.8667 78.1145 91.8236 82.3585 91.2272Z" fill="var(--fill-0, #FFB6A3)" fill-opacity="0.25"/>
<path id="Vector_6" d="M77.6725 131.067L42.1318 136.062C40.275 136.323 38.9814 138.04 39.2423 139.896C39.5033 141.753 41.22 143.047 43.0768 142.786L78.6175 137.791C80.4743 137.53 81.7679 135.813 81.507 133.957C81.246 132.1 79.5293 130.806 77.6725 131.067Z" fill="var(--fill-0, #2A1A1F)" fill-opacity="0.12"/>
<path id="Vector_7" d="M66.1899 143.456L43.1365 146.696C41.545 146.919 40.4361 148.391 40.6598 149.982C40.8835 151.574 42.355 152.683 43.9465 152.459L66.9999 149.219C68.5914 148.995 69.7003 147.524 69.4766 145.932C69.2529 144.341 67.7814 143.232 66.1899 143.456Z" fill="var(--fill-0, #2A1A1F)" fill-opacity="0.08"/>
</g>
<path id="Vector_8" d="M170.72 34.92H104.76C97.26 34.92 91.18 41 91.18 48.5V133.86C91.18 141.36 97.26 147.44 104.76 147.44H170.72C178.22 147.44 184.3 141.36 184.3 133.86V48.5C184.3 41 178.22 34.92 170.72 34.92Z" fill="var(--fill-0, white)" stroke="var(--stroke-0, #D4144F)" stroke-opacity="0.18" stroke-width="1.164"/>
<path id="Vector_9" d="M166.84 46.56H108.64C104.354 46.56 100.88 50.0343 100.88 54.32V108.64C100.88 112.926 104.354 116.4 108.64 116.4H166.84C171.126 116.4 174.6 112.926 174.6 108.64V54.32C174.6 50.0343 171.126 46.56 166.84 46.56Z" fill="var(--fill-0, #F9E0E7)"/>
<path id="Vector_10" d="M137.74 91.18C149.526 91.18 159.08 83.3629 159.08 73.72C159.08 64.0771 149.526 56.26 137.74 56.26C125.954 56.26 116.4 64.0771 116.4 73.72C116.4 83.3629 125.954 91.18 137.74 91.18Z" fill="var(--fill-0, #D4144F)" fill-opacity="0.18"/>
<path id="Vector_11" d="M151.32 75.66C157.749 75.66 162.96 71.3172 162.96 65.96C162.96 60.6028 157.749 56.26 151.32 56.26C144.891 56.26 139.68 60.6028 139.68 65.96C139.68 71.3172 144.891 75.66 151.32 75.66Z" fill="var(--fill-0, #FFB6A3)" fill-opacity="0.35"/>
<path id="Vector_12" d="M124.16 88.27C127.91 88.27 130.95 85.23 130.95 81.48C130.95 77.73 127.91 74.69 124.16 74.69C120.41 74.69 117.37 77.73 117.37 81.48C117.37 85.23 120.41 88.27 124.16 88.27Z" fill="var(--fill-0, #D4144F)" fill-opacity="0.22"/>
<path id="Vector_13" d="M162.96 118.34C168.317 118.34 172.66 113.997 172.66 108.64C172.66 103.283 168.317 98.94 162.96 98.94C157.603 98.94 153.26 103.283 153.26 108.64C153.26 113.997 157.603 118.34 162.96 118.34Z" fill="var(--fill-0, #D4144F)"/>
<path id="Vector_14" d="M165.87 105.245H160.05C158.979 105.245 158.11 106.114 158.11 107.185V110.095C158.11 111.166 158.979 112.035 160.05 112.035H165.87C166.941 112.035 167.81 111.166 167.81 110.095V107.185C167.81 106.114 166.941 105.245 165.87 105.245Z" fill="var(--fill-0, white)" fill-opacity="0.9"/>
<path id="Vector_15" d="M162.96 111.065C164.299 111.065 165.385 109.979 165.385 108.64C165.385 107.301 164.299 106.215 162.96 106.215C161.621 106.215 160.535 107.301 160.535 108.64C160.535 109.979 161.621 111.065 162.96 111.065Z" fill="var(--fill-0, #D4144F)"/>
<path id="Vector_16" d="M144.045 126.1H104.275C102.4 126.1 100.88 127.62 100.88 129.495C100.88 131.37 102.4 132.89 104.275 132.89H144.045C145.92 132.89 147.44 131.37 147.44 129.495C147.44 127.62 145.92 126.1 144.045 126.1Z" fill="var(--fill-0, #2A1A1F)" fill-opacity="0.13"/>
<path id="Vector_17" d="M130.95 136.77H103.79C102.183 136.77 100.88 138.073 100.88 139.68C100.88 141.287 102.183 142.59 103.79 142.59H130.95C132.557 142.59 133.86 141.287 133.86 139.68C133.86 138.073 132.557 136.77 130.95 136.77Z" fill="var(--fill-0, #2A1A1F)" fill-opacity="0.09"/>
<g id="Group_2">
<path id="Vector_18" d="M197.757 71.867L174.605 69.4336C169.277 68.8736 164.504 72.7387 163.944 78.0665L160.294 112.795C159.734 118.123 163.599 122.896 168.927 123.456L192.079 125.889C197.407 126.449 202.18 122.584 202.74 117.256L206.39 82.5278C206.95 77.2 203.085 72.427 197.757 71.867Z" fill="var(--fill-0, white)" stroke="var(--stroke-0, #FFB6A3)" stroke-opacity="0.25" stroke-width="0.97"/>
<path id="Vector_19" d="M195.017 79.3817L175.723 77.3539C172.526 77.0179 169.662 79.337 169.326 82.5336L167.501 99.898C167.165 103.095 169.484 105.958 172.681 106.294L191.975 108.322C195.172 108.658 198.035 106.339 198.371 103.143L200.196 85.7782C200.532 82.5815 198.213 79.7177 195.017 79.3817Z" fill="var(--fill-0, #FFF0E8)"/>
<path id="Vector_20" d="M182.936 101.52C187.731 102.024 191.982 98.9776 192.43 94.7153C192.878 90.4531 189.354 86.5893 184.559 86.0853C179.764 85.5813 175.513 88.628 175.065 92.8902C174.617 97.1525 178.141 101.016 182.936 101.52Z" fill="var(--fill-0, #FFB6A3)" fill-opacity="0.28"/>
</g>
</g>
</svg>
