<svg preserveAspectRatio="xMidYMid meet" width="100%" height="100%" overflow="visible" style="display: block;" viewBox="0 0 220 200" fill="none" xmlns="http://www.w3.org/2000/svg">
<g id="IllustCard">
<path id="Vector" d="M110 170C154.183 170 190 143.137 190 110C190 76.8629 154.183 50 110 50C65.8172 50 30 76.8629 30 110C30 143.137 65.8172 170 110 170Z" fill="var(--fill-0, #FFB6A3)" fill-opacity="0.08"/>
<path id="Vector_2" d="M174 36H46C37.1634 36 30 43.1634 30 52V130C30 138.837 37.1634 146 46 146H174C182.837 146 190 138.837 190 130V52C190 43.1634 182.837 36 174 36Z" fill="var(--fill-0, white)" stroke="var(--stroke-0, #FFB6A3)" stroke-opacity="0.25" stroke-width="1.2"/>
<path id="Vector_3" d="M64 92C73.9411 92 82 83.9411 82 74C82 64.0589 73.9411 56 64 56C54.0589 56 46 64.0589 46 74C46 83.9411 54.0589 92 64 92Z" fill="var(--fill-0, #F9E0E7)"/>
<path id="Vector_4" d="M64 75C67.866 75 71 71.866 71 68C71 64.134 67.866 61 64 61C60.134 61 57 64.134 57 68C57 71.866 60.134 75 64 75Z" fill="var(--fill-0, #FFB6A3)" fill-opacity="0.7"/>
<path id="Vector_5" d="M64 92C70.0751 92 75 89.3137 75 86C75 82.6863 70.0751 80 64 80C57.9249 80 53 82.6863 53 86C53 89.3137 57.9249 92 64 92Z" fill="var(--fill-0, #FFB6A3)" fill-opacity="0.5"/>
<path id="Vector_6" d="M160 64H96C93.7909 64 92 65.7909 92 68C92 70.2091 93.7909 72 96 72H160C162.209 72 164 70.2091 164 68C164 65.7909 162.209 64 160 64Z" fill="var(--fill-0, #2A1A1F)" fill-opacity="0.18"/>
<path id="Vector_7" d="M139 78H95C93.3431 78 92 79.3431 92 81C92 82.6569 93.3431 84 95 84H139C140.657 84 142 82.6569 142 81C142 79.3431 140.657 78 139 78Z" fill="var(--fill-0, #C4A8AB)" fill-opacity="0.45"/>
<path id="Vector_8" d="M44 100H176" stroke="var(--stroke-0, #FFB6A3)" stroke-opacity="0.2"/>
<path id="Vector_9" d="M131.25 112H46.75C45.2312 112 44 113.231 44 114.75C44 116.269 45.2312 117.5 46.75 117.5H131.25C132.769 117.5 134 116.269 134 114.75C134 113.231 132.769 112 131.25 112Z" fill="var(--fill-0, #2A1A1F)" fill-opacity="0.1"/>
<path id="Vector_10" d="M161.25 122H46.75C45.2312 122 44 123.231 44 124.75C44 126.269 45.2312 127.5 46.75 127.5H161.25C162.769 127.5 164 126.269 164 124.75C164 123.231 162.769 122 161.25 122Z" fill="var(--fill-0, #2A1A1F)" fill-opacity="0.1"/>
<path id="Vector_11" d="M107.25 132H46.75C45.2312 132 44 133.231 44 134.75C44 136.269 45.2312 137.5 46.75 137.5H107.25C108.769 137.5 110 136.269 110 134.75C110 133.231 108.769 132 107.25 132Z" fill="var(--fill-0, #2A1A1F)" fill-opacity="0.1"/>
<path id="Vector_12" d="M170 110H162C158.686 110 156 112.686 156 116V124C156 127.314 158.686 130 162 130H170C173.314 130 176 127.314 176 124V116C176 112.686 173.314 110 170 110Z" fill="var(--fill-0, #D4144F)" fill-opacity="0.12"/>
<path id="Vector_13" d="M163 126L162 129L165 128L170.5 122.5L168.5 120.5L163 126Z" fill="var(--fill-0, #D4144F)" fill-opacity="0.7"/>
<path id="Vector_14" d="M168.5 120.5L170.5 122.5" stroke="var(--stroke-0, #D4144F)" stroke-opacity="0.7" stroke-width="1.2" stroke-linecap="round"/>
<path id="Vector_15" d="M73 158H41C34.9249 158 30 162.925 30 169C30 175.075 34.9249 180 41 180H73C79.0751 180 84 175.075 84 169C84 162.925 79.0751 158 73 158Z" fill="var(--fill-0, #F9E0E7)"/>
<path id="Vector_16" d="M127 158H103C96.9249 158 92 162.925 92 169C92 175.075 96.9249 180 103 180H127C133.075 180 138 175.075 138 169C138 162.925 133.075 158 127 158Z" fill="var(--fill-0, #FFF0E8)"/>
<path id="Vector_17" d="M179 158H157C150.925 158 146 162.925 146 169C146 175.075 150.925 180 157 180H179C185.075 180 190 175.075 190 169C190 162.925 185.075 158 179 158Z" fill="var(--fill-0, #F9E0E7)"/>
<path id="Vector_18" d="M70.5 165.5H43.5C41.567 165.5 40 167.067 40 169C40 170.933 41.567 172.5 43.5 172.5H70.5C72.433 172.5 74 170.933 74 169C74 167.067 72.433 165.5 70.5 165.5Z" fill="var(--fill-0, #D4144F)" fill-opacity="0.4"/>
<path id="Vector_19" d="M125.5 165.5H104.5C102.567 165.5 101 167.067 101 169C101 170.933 102.567 172.5 104.5 172.5H125.5C127.433 172.5 129 170.933 129 169C129 167.067 127.433 165.5 125.5 165.5Z" fill="var(--fill-0, #FFB6A3)" fill-opacity="0.5"/>
<path id="Vector_20" d="M177.5 165.5H158.5C156.567 165.5 155 167.067 155 169C155 170.933 156.567 172.5 158.5 172.5H177.5C179.433 172.5 181 170.933 181 169C181 167.067 179.433 165.5 177.5 165.5Z" fill="var(--fill-0, #D4144F)" fill-opacity="0.4"/>
</g>
</svg>
