<svg preserveAspectRatio="xMidYMid meet" width="100%" height="100%" overflow="visible" style="display: block;" viewBox="0 0 213.4 194" fill="none" xmlns="http://www.w3.org/2000/svg">
<g id="IllustConnect">
<path id="Vector" d="M106.7 157.14C150.629 157.14 186.24 130.214 186.24 97C186.24 63.7856 150.629 36.86 106.7 36.86C62.7712 36.86 27.16 63.7856 27.16 97C27.16 130.214 62.7712 157.14 106.7 157.14Z" fill="var(--fill-0, #FFB6A3)" fill-opacity="0.07"/>
<path id="Vector_2" d="M151.32 29.1H62.08C54.5799 29.1 48.5 35.18 48.5 42.68V112.52C48.5 120.02 54.5799 126.1 62.08 126.1H151.32C158.82 126.1 164.9 120.02 164.9 112.52V42.68C164.9 35.18 158.82 29.1 151.32 29.1Z" fill="var(--fill-0, white)" stroke="var(--stroke-0, #D4144F)" stroke-opacity="0.18" stroke-width="1.164"/>
<path id="Vector_3" d="M151.32 29.1H62.08C54.5799 29.1 48.5 35.18 48.5 42.68V44.62C48.5 52.12 54.5799 58.2 62.08 58.2H151.32C158.82 58.2 164.9 52.12 164.9 44.62V42.68C164.9 35.18 158.82 29.1 151.32 29.1Z" fill="var(--fill-0, #D4144F)" fill-opacity="0.08"/>
<path id="Vector_4" d="M164.9 42.68H48.5V58.2H164.9V42.68Z" fill="var(--fill-0, #D4144F)" fill-opacity="0.08"/>
<path id="Vector_5" d="M139.68 36.86H73.72C71.5771 36.86 69.84 38.5971 69.84 40.74C69.84 42.8829 71.5771 44.62 73.72 44.62H139.68C141.823 44.62 143.56 42.8829 143.56 40.74C143.56 38.5971 141.823 36.86 139.68 36.86Z" fill="var(--fill-0, #D4144F)" fill-opacity="0.35"/>
<path id="Vector_6" d="M62.08 80.995C63.955 80.995 65.475 79.475 65.475 77.6C65.475 75.725 63.955 74.205 62.08 74.205C60.2049 74.205 58.685 75.725 58.685 77.6C58.685 79.475 60.2049 80.995 62.08 80.995Z" fill="var(--fill-0, #2A1A1F)" fill-opacity="0.12"/>
<path id="Vector_7" d="M76.63 80.995C78.505 80.995 80.025 79.475 80.025 77.6C80.025 75.725 78.505 74.205 76.63 74.205C74.7549 74.205 73.235 75.725 73.235 77.6C73.235 79.475 74.7549 80.995 76.63 80.995Z" fill="var(--fill-0, #2A1A1F)" fill-opacity="0.12"/>
<path id="Vector_8" d="M91.18 80.995C93.055 80.995 94.575 79.475 94.575 77.6C94.575 75.725 93.055 74.205 91.18 74.205C89.3049 74.205 87.785 75.725 87.785 77.6C87.785 79.475 89.3049 80.995 91.18 80.995Z" fill="var(--fill-0, #D4144F)" fill-opacity="0.7"/>
<path id="Vector_9" d="M105.73 80.995C107.605 80.995 109.125 79.475 109.125 77.6C109.125 75.725 107.605 74.205 105.73 74.205C103.855 74.205 102.335 75.725 102.335 77.6C102.335 79.475 103.855 80.995 105.73 80.995Z" fill="var(--fill-0, #2A1A1F)" fill-opacity="0.12"/>
<path id="Vector_10" d="M120.28 80.995C122.155 80.995 123.675 79.475 123.675 77.6C123.675 75.725 122.155 74.205 120.28 74.205C118.405 74.205 116.885 75.725 116.885 77.6C116.885 79.475 118.405 80.995 120.28 80.995Z" fill="var(--fill-0, #2A1A1F)" fill-opacity="0.12"/>
<path id="Vector_11" d="M134.83 80.995C136.705 80.995 138.225 79.475 138.225 77.6C138.225 75.725 136.705 74.205 134.83 74.205C132.955 74.205 131.435 75.725 131.435 77.6C131.435 79.475 132.955 80.995 134.83 80.995Z" fill="var(--fill-0, #2A1A1F)" fill-opacity="0.12"/>
<path id="Vector_12" d="M149.38 80.995C151.255 80.995 152.775 79.475 152.775 77.6C152.775 75.725 151.255 74.205 149.38 74.205C147.505 74.205 145.985 75.725 145.985 77.6C145.985 79.475 147.505 80.995 149.38 80.995Z" fill="var(--fill-0, #2A1A1F)" fill-opacity="0.12"/>
<path id="Vector_13" d="M62.08 98.455C63.955 98.455 65.475 96.935 65.475 95.06C65.475 93.185 63.955 91.665 62.08 91.665C60.2049 91.665 58.685 93.185 58.685 95.06C58.685 96.935 60.2049 98.455 62.08 98.455Z" fill="var(--fill-0, #2A1A1F)" fill-opacity="0.12"/>
<path id="Vector_14" d="M76.63 98.455C78.505 98.455 80.025 96.935 80.025 95.06C80.025 93.185 78.505 91.665 76.63 91.665C74.7549 91.665 73.235 93.185 73.235 95.06C73.235 96.935 74.7549 98.455 76.63 98.455Z" fill="var(--fill-0, #2A1A1F)" fill-opacity="0.12"/>
<path id="Vector_15" d="M91.18 98.455C93.055 98.455 94.575 96.935 94.575 95.06C94.575 93.185 93.055 91.665 91.18 91.665C89.3049 91.665 87.785 93.185 87.785 95.06C87.785 96.935 89.3049 98.455 91.18 98.455Z" fill="var(--fill-0, #2A1A1F)" fill-opacity="0.12"/>
<path id="Vector_16" d="M105.73 98.455C107.605 98.455 109.125 96.935 109.125 95.06C109.125 93.185 107.605 91.665 105.73 91.665C103.855 91.665 102.335 93.185 102.335 95.06C102.335 96.935 103.855 98.455 105.73 98.455Z" fill="var(--fill-0, #2A1A1F)" fill-opacity="0.12"/>
<path id="Vector_17" d="M120.28 98.455C122.155 98.455 123.675 96.935 123.675 95.06C123.675 93.185 122.155 91.665 120.28 91.665C118.405 91.665 116.885 93.185 116.885 95.06C116.885 96.935 118.405 98.455 120.28 98.455Z" fill="var(--fill-0, #FFB6A3)" fill-opacity="0.8"/>
<path id="Vector_18" d="M134.83 98.455C136.705 98.455 138.225 96.935 138.225 95.06C138.225 93.185 136.705 91.665 134.83 91.665C132.955 91.665 131.435 93.185 131.435 95.06C131.435 96.935 132.955 98.455 134.83 98.455Z" fill="var(--fill-0, #2A1A1F)" fill-opacity="0.12"/>
<path id="Vector_19" d="M149.38 98.455C151.255 98.455 152.775 96.935 152.775 95.06C152.775 93.185 151.255 91.665 149.38 91.665C147.505 91.665 145.985 93.185 145.985 95.06C145.985 96.935 147.505 98.455 149.38 98.455Z" fill="var(--fill-0, #2A1A1F)" fill-opacity="0.12"/>
<path id="Vector_20" d="M62.08 115.915C63.955 115.915 65.475 114.395 65.475 112.52C65.475 110.645 63.955 109.125 62.08 109.125C60.2049 109.125 58.685 110.645 58.685 112.52C58.685 114.395 60.2049 115.915 62.08 115.915Z" fill="var(--fill-0, #2A1A1F)" fill-opacity="0.12"/>
<path id="Vector_21" d="M76.63 115.915C78.505 115.915 80.025 114.395 80.025 112.52C80.025 110.645 78.505 109.125 76.63 109.125C74.7549 109.125 73.235 110.645 73.235 112.52C73.235 114.395 74.7549 115.915 76.63 115.915Z" fill="var(--fill-0, #2A1A1F)" fill-opacity="0.12"/>
<path id="Vector_22" d="M91.18 115.915C93.055 115.915 94.575 114.395 94.575 112.52C94.575 110.645 93.055 109.125 91.18 109.125C89.3049 109.125 87.785 110.645 87.785 112.52C87.785 114.395 89.3049 115.915 91.18 115.915Z" fill="var(--fill-0, #2A1A1F)" fill-opacity="0.12"/>
<path id="Vector_23" d="M106.7 128.04C106.7 144.853 106.7 154.553 106.7 157.14" stroke="url(#paint0_linear_4_1647)" stroke-width="1.94" stroke-linecap="round" stroke-dasharray="3.88 2.91"/>
<path id="Vector_24" d="M73.72 178.48C82.2914 178.48 89.24 171.531 89.24 162.96C89.24 154.389 82.2914 147.44 73.72 147.44C65.1485 147.44 58.2 154.389 58.2 162.96C58.2 171.531 65.1485 178.48 73.72 178.48Z" fill="var(--fill-0, #F9E0E7)"/>
<path id="Vector_25" d="M73.7199 163.93C76.9342 163.93 79.5399 161.324 79.5399 158.11C79.5399 154.896 76.9342 152.29 73.7199 152.29C70.5057 152.29 67.8999 154.896 67.8999 158.11C67.8999 161.324 70.5057 163.93 73.7199 163.93Z" fill="var(--fill-0, #FFB6A3)" fill-opacity="0.8"/>
<path id="Vector_26" d="M73.72 176.54C78.5414 176.54 82.45 174.369 82.45 171.69C82.45 169.011 78.5414 166.84 73.72 166.84C68.8985 166.84 64.99 169.011 64.99 171.69C64.99 174.369 68.8985 176.54 73.72 176.54Z" fill="var(--fill-0, #FFB6A3)" fill-opacity="0.6"/>
<path id="Vector_27" d="M139.68 178.48C148.251 178.48 155.2 171.531 155.2 162.96C155.2 154.389 148.251 147.44 139.68 147.44C131.108 147.44 124.16 154.389 124.16 162.96C124.16 171.531 131.108 178.48 139.68 178.48Z" fill="var(--fill-0, #F9E0E7)"/>
<path id="Vector_28" d="M139.68 163.93C142.894 163.93 145.5 161.324 145.5 158.11C145.5 154.896 142.894 152.29 139.68 152.29C136.466 152.29 133.86 154.896 133.86 158.11C133.86 161.324 136.466 163.93 139.68 163.93Z" fill="var(--fill-0, #D4144F)" fill-opacity="0.75"/>
<path id="Vector_29" d="M139.68 176.54C144.501 176.54 148.41 174.369 148.41 171.69C148.41 169.011 144.501 166.84 139.68 166.84C134.859 166.84 130.95 169.011 130.95 171.69C130.95 174.369 134.859 176.54 139.68 176.54Z" fill="var(--fill-0, #D4144F)" fill-opacity="0.5"/>
<path id="Vector_30" d="M89.24 164.9C100.88 150.673 112.52 150.673 124.16 164.9" stroke="url(#paint1_linear_4_1647)" stroke-width="2.328" stroke-linecap="round"/>
<path id="Vector_31" d="M147.44 58.2C154.94 58.2 161.02 52.12 161.02 44.62C161.02 37.12 154.94 31.04 147.44 31.04C139.94 31.04 133.86 37.12 133.86 44.62C133.86 52.12 139.94 58.2 147.44 58.2Z" fill="var(--fill-0, #D4144F)"/>
<path id="Vector_32" d="M150.35 36.86H144.53C143.459 36.86 142.59 37.7286 142.59 38.8V42.68C142.59 43.7514 143.459 44.62 144.53 44.62H150.35C151.421 44.62 152.29 43.7514 152.29 42.68V38.8C152.29 37.7286 151.421 36.86 150.35 36.86Z" fill="var(--fill-0, white)" fill-opacity="0.9"/>
<path id="Vector_33" d="M151.077 46.56H143.802C143.401 46.56 143.075 46.8857 143.075 47.2875C143.075 47.6893 143.401 48.015 143.802 48.015H151.077C151.479 48.015 151.805 47.6893 151.805 47.2875C151.805 46.8857 151.479 46.56 151.077 46.56Z" fill="var(--fill-0, white)" fill-opacity="0.7"/>
<path id="Vector_34" d="M147.44 52.865C148.244 52.865 148.895 52.2136 148.895 51.41C148.895 50.6064 148.244 49.955 147.44 49.955C146.636 49.955 145.985 50.6064 145.985 51.41C145.985 52.2136 146.636 52.865 147.44 52.865Z" fill="var(--fill-0, white)" fill-opacity="0.85"/>
</g>
<defs>
<linearGradient id="paint0_linear_4_1647" x1="106.7" y1="128.04" x2="106.7" y2="157.14" gradientUnits="userSpaceOnUse">
<stop stop-color="#D4144F" stop-opacity="0.3"/>
<stop offset="1" stop-color="#D4144F" stop-opacity="0.1"/>
</linearGradient>
<linearGradient id="paint1_linear_4_1647" x1="89.24" y1="164.9" x2="124.16" y2="164.9" gradientUnits="userSpaceOnUse">
<stop stop-color="#FFB6A3"/>
<stop offset="1" stop-color="#D4144F"/>
</linearGradient>
</defs>
</svg>
